<svg xmlns="http://www.w3.org/2000/svg" viewBox="0 0 512 512" width="100%" height="100%">
  <!-- Background Putih Bersih -->
  <rect width="512" height="512" rx="96" fill="#ffffff"/>
  
  <!-- Border & Grid Frame -->
  <rect x="64" y="64" width="384" height="384" rx="32" fill="none" stroke="#2c3e50" stroke-width="24"/>
  <line x1="256" y1="64" x2="256" y2="448" stroke="#2c3e50" stroke-width="20"/>
  <line x1="64" y1="256" x2="448" y2="256" stroke="#2c3e50" stroke-width="20"/>
  
  <!-- Lingkaran Gelap (Top-Left) -->
  <circle cx="160" cy="160" r="52" fill="#2c3e50"/>
  
  <!-- Matahari (Top-Right) -->
  <g transform="translate(352, 160)">
    <circle cx="0" cy="0" r="32" fill="#f39c12"/>
    <path d="M 0,-48 L 0,-36 M 0,36 L 0,48 M -48,0 L -36,0 M 36,0 L 48,0 M -34,-34 L -25,-25 M 25,25 L 34,34 M -34,34 L -25,25 M 25,-25 L 34,-34" stroke="#f39c12" stroke-width="10" stroke-linecap="round"/>
  </g>
  
  <!-- Matahari (Bottom-Left) -->
  <g transform="translate(160, 352)">
    <circle cx="0" cy="0" r="32" fill="#f39c12"/>
    <path d="M 0,-48 L 0,-36 M 0,36 L 0,48 M -48,0 L -36,0 M 36,0 L 48,0 M -34,-34 L -25,-25 M 25,25 L 34,34 M -34,34 L -25,25 M 25,-25 L 34,-34" stroke="#f39c12" stroke-width="10" stroke-linecap="round"/>
  </g>
  
  <!-- Lingkaran Gelap (Bottom-Right) -->
  <circle cx="352" cy="352" r="52" fill="#2c3e50"/>
</svg>
